<?xml version="1.0" encoding="UTF-8"?>
<svg version="1.1" xmlns="http://www.w3.org/2000/svg" width="225" height="225">
<path d="M0 0 C74.25 0 148.5 0 225 0 C225 74.25 225 148.5 225 225 C150.75 225 76.5 225 0 225 C0 150.75 0 76.5 0 0 Z " fill="#FEFEFE" transform="translate(0,0)"/>
<path d="M0 0 C10.93720957 9.43270933 17.79038258 19.70456042 23.27734375 32.8671875 C23.64730469 33.72699219 24.01726562 34.58679688 24.3984375 35.47265625 C28.12843078 45.63481571 28.73142579 58.36371637 26.27734375 68.8671875 C27.59089844 68.82078125 28.90445313 68.774375 30.2578125 68.7265625 C31.99346679 68.68903484 33.72914574 68.65263575 35.46484375 68.6171875 C36.32916016 68.58367187 37.19347656 68.55015625 38.08398438 68.515625 C42.32645267 68.45060633 44.6494151 68.48788035 48.35546875 70.7265625 C50.27734375 72.8671875 50.27734375 72.8671875 50.83984375 75.3671875 C50.09070696 78.69668433 48.94933772 79.76213934 46.27734375 81.8671875 C43.22151184 82.37944031 43.22151184 82.37944031 39.59692383 82.3972168 C38.93470322 82.40594818 38.2724826 82.41467957 37.5901947 82.42367554 C35.40881071 82.44800717 33.22837718 82.44464444 31.046875 82.44140625 C29.53039433 82.45385092 28.01392809 82.46818502 26.4974823 82.48432922 C22.51121031 82.52234443 18.52518683 82.53754237 14.53875732 82.54711914 C8.1473226 82.56687185 1.75607723 82.62357856 -4.63515663 82.67588234 C-6.87154921 82.69127496 -9.10784776 82.69842741 -11.34428406 82.70402527 C-12.70632983 82.71103784 -14.06837515 82.71813847 -15.43041992 82.7253418 C-16.62414719 82.72882126 -17.81787445 82.73230072 -19.04777527 82.73588562 C-21.64245775 82.5631262 -21.64245775 82.5631262 -22.72265625 83.8671875 C-22.95340707 85.21465834 -23.13418688 86.57096315 -23.28515625 87.9296875 C-23.42953125 89.2290625 -23.57390625 90.5284375 -23.72265625 91.8671875 C-22.96339844 91.96515625 -22.20414062 92.063125 -21.421875 92.1640625 C-20.42800781 92.31359375 -19.43414062 92.463125 -18.41015625 92.6171875 C-17.42402344 92.75640625 -16.43789062 92.895625 -15.421875 93.0390625 C-12.21187712 94.02389543 -11.29094951 94.93610149 -9.72265625 97.8671875 C-9.94303253 101.54012546 -10.09232171 103.23685296 -12.72265625 105.8671875 C-15.4375 106.2109375 -15.4375 106.2109375 -18.66015625 106.3671875 C-23.49768522 106.57822949 -23.49768522 106.57822949 -27.72265625 108.8671875 C-28.22265625 112.3671875 -28.22265625 112.3671875 -27.72265625 115.8671875 C-24.58602263 117.95827658 -23.86875556 118.11682432 -20.29882812 118.12255859 C-18.96229187 118.13299698 -18.96229187 118.13299698 -17.59875488 118.14364624 C-16.63932983 118.14264923 -15.67990479 118.14165222 -14.69140625 118.140625 C-12.66405692 118.16090842 -10.63671321 118.18175909 -8.609375 118.203125 C-5.40961977 118.22576594 -2.21008568 118.24221043 0.98974609 118.24804688 C4.07560274 118.25754036 7.16045982 118.29127438 10.24609375 118.328125 C11.2055188 118.32307953 12.16494385 118.31803406 13.15344238 118.31283569 C14.04446655 118.32609894 14.93549072 118.33936218 15.85351562 118.35302734 C16.63722534 118.35587738 17.42093506 118.35872742 18.22839355 118.36166382 C20.27734375 118.8671875 20.27734375 118.8671875 22.06164551 120.70401001 C23.27734375 122.8671875 23.27734375 122.8671875 23.15234375 125.9921875 C22.27734375 128.8671875 22.27734375 128.8671875 19.27734375 130.8671875 C17.16743469 131.12166309 17.16743469 131.12166309 14.68481445 131.12788391 C13.74264069 131.13496872 12.80046692 131.14205353 11.82974243 131.14935303 C10.2820668 131.1456369 10.2820668 131.1456369 8.703125 131.1418457 C7.6151059 131.14695663 6.52708679 131.15206757 5.40609741 131.15733337 C1.80062397 131.17126221 -1.80465906 131.17027027 -5.41015625 131.16796875 C-7.90975008 131.17185353 -10.40934324 131.17618775 -12.90893555 131.18095398 C-18.15122099 131.18842304 -23.39345689 131.18825747 -28.63574219 131.18286133 C-34.69736088 131.17681784 -40.75874768 131.18914169 -46.82032681 131.2104314 C-52.65039058 131.2301558 -58.48036328 131.23322314 -64.31045532 131.22969627 C-66.79204859 131.23021094 -69.27364546 131.23547571 -71.75521851 131.24550819 C-75.21980854 131.25779634 -78.68385664 131.25112677 -82.1484375 131.23950195 C-83.18022125 131.24714569 -84.212005 131.25478943 -85.27505493 131.26266479 C-86.2172287 131.25565048 -87.15940247 131.24863617 -88.13012695 131.2414093 C-89.35902397 131.24166091 -89.35902397 131.24166091 -90.61274719 131.24191761 C-93.26664867 130.7705718 -94.14780563 130.03160253 -95.72265625 127.8671875 C-96.09765625 124.3046875 -96.09765625 124.3046875 -95.72265625 120.8671875 C-92.08996363 118.44539242 -90.29785462 118.60222214 -85.97265625 118.55859375 C-84.62890176 118.53344177 -83.28515186 118.50804363 -81.94140625 118.48242188 C-79.82813627 118.4536448 -77.71494569 118.42961916 -75.6015625 118.41088867 C-73.55818471 118.38924675 -71.51571891 118.34982154 -69.47265625 118.30859375 C-68.250625 118.29513916 -67.02859375 118.28168457 -65.76953125 118.26782227 C-62.7578804 118.11153982 -62.7578804 118.11153982 -60.82421875 116.53100586 C-59.10377736 113.9324225 -59.33686231 111.88924 -59.72265625 108.8671875 C-62.81453619 106.80593421 -63.46704073 106.61769835 -66.96289062 106.61181641 C-67.81387329 106.60485748 -68.66485596 106.59789856 -69.54162598 106.59072876 C-70.91514221 106.59222427 -70.91514221 106.59222427 -72.31640625 106.59375 C-74.25261001 106.57346663 -76.18880789 106.55261596 -78.125 106.53125 C-81.17990074 106.50861017 -84.23456988 106.49216474 -87.28955078 106.48632812 C-90.23642897 106.47683279 -93.18226121 106.44309722 -96.12890625 106.40625 C-97.50242249 106.41381821 -97.50242249 106.41381821 -98.90368652 106.42153931 C-105.21739451 106.32313512 -105.21739451 106.32313512 -107.79882812 103.99365234 C-108.94108228 101.36441512 -109.15913591 99.70430527 -108.72265625 96.8671875 C-107.72265625 95.1171875 -107.72265625 95.1171875 -105.72265625 93.8671875 C-104.37445752 93.6576515 -103.01850517 93.49538014 -101.66015625 93.3671875 C-100.36078125 93.2021875 -99.06140625 93.0371875 -97.72265625 92.8671875 C-95.5734984 89.64345073 -95.33978822 88.60015076 -95.72265625 84.8671875 C-98.46848134 82.12136241 -100.06365929 82.6138763 -103.90234375 82.59375 C-105.14113281 82.573125 -106.37992188 82.5525 -107.65625 82.53125 C-110.27597643 82.50528641 -112.89579075 82.48701049 -115.515625 82.4765625 C-116.75699219 82.45335937 -117.99835938 82.43015625 -119.27734375 82.40625 C-120.41671387 82.39803223 -121.55608398 82.38981445 -122.72998047 82.38134766 C-126.33995798 81.76113126 -127.51908482 80.73942888 -129.72265625 77.8671875 C-130.22265625 75.3671875 -130.22265625 75.3671875 -129.72265625 72.8671875 C-128.09765625 70.5546875 -128.09765625 70.5546875 -125.72265625 68.8671875 C-123.72377747 68.80022754 -121.72128967 68.79326544 -119.72265625 68.8671875 C-119.74360352 68.24900146 -119.76455078 67.63081543 -119.78613281 66.99389648 C-120.44558172 44.50794083 -117.07996003 25.43815669 -101.72265625 7.8671875 C-101.06265625 7.8671875 -100.40265625 7.8671875 -99.72265625 7.8671875 C-99.48675781 7.28839844 -99.25085938 6.70960937 -99.0078125 6.11328125 C-92.89714056 -4.56646455 -76.81345344 -10.63984879 -65.72265625 -14.1328125 C-42.42733556 -19.42472376 -18.85402028 -14.76943339 0 0 Z " fill="#EC573F" transform="translate(147.72265625,55.1328125)"/>
<path d="M0 0 C0.86753906 -0.01998047 1.73507813 -0.03996094 2.62890625 -0.06054688 C8.93321688 -0.05567492 8.93321688 -0.05567492 11.60546875 2.26953125 C12.86691133 5.32673924 12.386797 7.29960294 11.5 10.4375 C9.09820315 12.83929685 8.53049993 12.69348087 5.25390625 12.703125 C3.99803711 12.70699219 3.99803711 12.70699219 2.71679688 12.7109375 C1.84087891 12.70320312 0.96496094 12.69546875 0.0625 12.6875 C-0.80955078 12.69523438 -1.68160156 12.70296875 -2.58007812 12.7109375 C-3.41861328 12.70835937 -4.25714844 12.70578125 -5.12109375 12.703125 C-5.8886499 12.70086914 -6.65620605 12.69861328 -7.44702148 12.69628906 C-9.5 12.4375 -9.5 12.4375 -12.5 10.4375 C-13.16533626 4.3385843 -13.16533626 4.3385843 -11.24804688 1.74194336 C-7.95622093 -0.71451279 -3.95947156 -0.03235824 0 0 Z " fill="#EB5036" transform="translate(159.5,148.5625)"/>
<path d="M0 0 C0.86753906 -0.01998047 1.73507813 -0.03996094 2.62890625 -0.06054688 C8.93321688 -0.05567492 8.93321688 -0.05567492 11.60546875 2.26953125 C12.86691133 5.32673924 12.386797 7.29960294 11.5 10.4375 C9.5 12.4375 9.5 12.4375 7.56054688 12.68041992 C6.78775391 12.67631104 6.01496094 12.67220215 5.21875 12.66796875 C3.95611328 12.66506836 3.95611328 12.66506836 2.66796875 12.66210938 C1.78753906 12.64986328 0.90710938 12.63761719 0 12.625 C-0.88042969 12.62435547 -1.76085937 12.62371094 -2.66796875 12.62304688 C-9.21919885 12.57790057 -9.21919885 12.57790057 -11.5 11.4375 C-12.67312834 5.84258021 -12.67312834 5.84258021 -12.5 3.4375 C-9.1600099 -0.87635189 -5.04518535 -0.04123108 0 0 Z " fill="#EB4F36" transform="translate(194.5,148.5625)"/>
</svg>
