<svg version="1.1" id="Layer_1" xmlns="http://www.w3.org/2000/svg" xmlns:xlink="http://www.w3.org/1999/xlink" x="0px" y="0px"
	 width="100%" viewBox="0 0 340 217" enable-background="new 0 0 340 217" xml:space="preserve">
<path fill="#FEFEFE" opacity="1.000000" stroke="none" 
	d="
M213.000000,218.000000 
	C142.000015,218.000000 71.500015,218.000000 1.000019,218.000000 
	C1.000013,145.666687 1.000013,73.333366 1.000006,1.000038 
	C114.333305,1.000026 227.666611,1.000026 340.999939,1.000013 
	C340.999939,73.333290 340.999939,145.666580 340.999969,217.999939 
	C298.500000,218.000000 256.000000,218.000000 213.000000,218.000000 
M145.278198,9.853229 
	C127.865799,13.143179 110.453392,16.433130 93.268692,19.680058 
	C93.268692,58.353779 93.268692,96.286392 93.268692,134.460541 
	C119.081444,139.322205 144.677597,144.143066 170.410095,148.989609 
	C170.410095,100.812462 170.410095,53.086643 170.410095,4.991358 
	C162.075333,6.602346 154.098160,8.144219 145.278198,9.853229 
M174.105408,73.499992 
	C174.105408,98.559708 174.105408,123.619415 174.105408,149.060165 
	C200.382614,144.115707 225.975021,139.300110 251.492722,134.498566 
	C251.716034,133.702515 251.959702,133.238892 251.960022,132.775116 
	C251.985657,96.149078 251.960007,59.522942 252.060532,22.897142 
	C252.068695,19.924732 250.643677,19.407536 248.231186,18.961454 
	C232.707901,16.091139 217.212585,13.070024 201.701477,10.133292 
	C192.646378,8.418882 183.579056,6.769134 174.105453,5.014006 
	C174.105453,27.917286 174.105453,50.208637 174.105408,73.499992 
M62.817013,187.723755 
	C60.851913,186.255295 60.911011,184.930527 62.342178,182.814621 
	C67.890007,174.612411 62.963615,161.224716 51.149654,162.913101 
	C48.052197,163.355774 44.814018,163.224319 41.682812,162.920319 
	C37.400768,162.504623 36.178528,164.380753 36.241417,168.383636 
	C36.408653,179.027634 36.298241,189.675995 36.298252,200.322632 
	C36.298267,213.440689 36.299355,213.328247 49.576317,213.456009 
	C55.601284,213.513977 61.048656,212.497284 64.054916,206.726974 
	C67.259933,200.575226 67.293587,194.294739 62.817013,187.723755 
M105.079353,190.499832 
	C105.079659,196.495255 104.878334,202.501877 105.210892,208.478821 
	C105.303108,210.136261 106.980133,211.705521 107.930061,213.315247 
	C108.915665,211.747498 110.631439,210.233276 110.751068,208.602005 
	C111.122215,203.541168 110.886864,198.435852 110.886864,193.876526 
	C117.199120,191.645950 120.390526,194.013474 122.562927,199.022003 
	C124.144867,202.669220 126.113419,206.212997 128.389725,209.467010 
	C129.489395,211.038971 132.327698,213.191162 133.284958,212.743225 
	C136.719772,211.135895 134.353195,208.619843 133.236130,206.531113 
	C130.904694,202.171661 128.495987,197.853531 126.060059,193.410873 
	C126.932495,192.979385 127.520096,192.684616 128.111191,192.397049 
	C134.955963,189.067230 137.791885,181.967239 135.733109,173.312042 
	C134.163254,166.712311 129.269684,163.075668 121.734108,162.980392 
	C117.737801,162.929855 113.732491,163.124588 109.745773,162.922302 
	C106.310944,162.748016 104.948082,164.011154 105.029411,167.517929 
	C105.199249,174.841705 105.079933,182.172211 105.079353,190.499832 
M171.837158,173.238098 
	C169.040207,165.613739 165.404282,163.027954 157.330734,162.969193 
	C153.506271,162.941345 149.672638,163.124100 145.859375,162.915466 
	C142.408173,162.726654 141.125168,164.042496 141.155106,167.513580 
	C141.274170,181.314606 141.120239,195.118546 141.325333,208.917557 
	C141.347351,210.398590 142.867722,212.923233 144.009277,213.118927 
	C147.240768,213.672882 146.930130,210.882965 146.931503,208.719910 
	C146.934708,203.642380 146.932526,198.564865 146.932526,193.156219 
	C151.796844,193.156219 155.934006,193.267639 160.062927,193.130875 
	C166.726151,192.910156 171.291153,188.702057 171.980194,182.049789 
	C172.252151,179.424164 171.990402,176.743240 171.837158,173.238098 
M90.732773,212.480042 
	C97.193840,209.553894 100.202507,204.581833 100.094818,197.457382 
	C99.946518,187.646210 100.183479,177.827942 99.938614,168.020645 
	C99.895439,166.291641 98.302017,164.601334 97.424522,162.893158 
	C96.378777,164.650650 94.484299,166.381790 94.428772,168.170029 
	C94.129509,177.807846 94.316704,187.459946 94.275940,197.106873 
	C94.248405,203.622452 90.662216,207.829453 85.171677,207.934143 
	C79.496262,208.042389 75.654999,203.721085 75.615067,196.993515 
	C75.557808,187.346756 75.731148,177.695953 75.477715,168.055511 
	C75.431999,166.316803 73.953461,163.270874 72.880386,163.152664 
	C69.468254,162.776764 69.889885,165.855911 69.881126,168.120834 
	C69.844460,177.601456 69.845169,187.082367 69.870804,196.563049 
	C69.904892,209.170151 77.781723,215.496567 90.732773,212.480042 
M237.743210,194.332535 
	C237.743530,185.515594 237.894241,176.693848 237.613281,167.885880 
	C237.559143,166.188400 235.813461,164.544891 234.848099,162.876465 
	C233.890793,164.491760 232.149780,166.085739 232.105164,167.725861 
	C231.842850,177.367462 231.999207,187.019897 231.968216,196.668533 
	C231.946350,203.475220 228.324371,207.829208 222.682587,207.942490 
	C216.859619,208.059418 213.016068,203.592407 212.989395,196.551361 
	C212.952240,186.736404 213.080246,176.919037 212.868881,167.108490 
	C212.837952,165.673370 211.322540,164.270248 210.494019,162.852325 
	C209.443771,164.244797 207.515259,165.617233 207.482941,167.032944 
	C207.236237,177.840210 207.145035,188.661774 207.441589,199.466934 
	C207.644028,206.843033 212.808640,212.124344 220.109818,213.365173 
	C230.395874,215.113281 237.641052,207.681885 237.743210,194.332535 
M290.615814,162.998795 
	C287.844818,163.872787 282.923035,160.504700 282.909912,166.825592 
	C282.880188,181.124649 282.936768,195.423981 282.868896,209.722778 
	C282.856750,212.280243 283.848572,213.348053 286.380493,213.322922 
	C292.199310,213.265182 298.027863,213.479263 303.831879,213.181702 
	C305.158508,213.113708 306.401917,211.422348 307.683624,210.478119 
	C306.372406,209.572327 305.105835,207.973145 303.741943,207.885330 
	C298.822998,207.568512 293.871216,207.760773 288.636902,207.760773 
	C288.636902,201.181259 288.636902,195.173782 288.636902,188.773743 
	C292.086884,188.773743 295.264984,189.074860 298.342346,188.648514 
	C299.914703,188.430679 301.306427,186.909012 302.779816,185.976639 
	C301.367310,184.998077 300.041046,183.377335 298.524445,183.173615 
	C295.293091,182.739532 291.962891,183.040924 288.521149,183.040924 
	C288.521149,178.082321 288.521149,173.650742 288.521149,168.534912 
	C293.810913,168.534912 298.926422,168.731949 304.006866,168.396927 
	C305.283081,168.312744 306.446777,166.521942 307.662201,165.515503 
	C306.461304,164.676514 305.307220,163.207367 304.050995,163.114075 
	C299.917084,162.807129 295.746124,162.998703 290.615814,162.998795 
M181.930832,186.574356 
	C185.796997,189.164429 189.665909,191.750412 193.528397,194.345932 
	C196.219513,196.154343 199.493835,198.403091 197.742966,201.795242 
	C196.422882,204.352829 193.265076,206.769760 190.458984,207.531342 
	C187.493042,208.336319 183.968811,207.154205 180.700836,206.741867 
	C179.399750,206.577713 178.068970,205.763260 176.867844,205.958664 
	C175.813156,206.130249 174.311249,207.173981 174.128632,208.062927 
	C173.947342,208.945526 175.055908,210.932343 175.787735,211.030823 
	C181.777725,211.836838 187.890244,213.172379 193.808975,212.632095 
	C198.943771,212.163361 202.855621,208.223312 203.741928,202.732132 
	C204.620438,197.289352 202.184296,193.063919 197.602020,190.045029 
	C193.160736,187.119034 188.778168,184.103149 184.314560,181.212067 
	C181.496780,179.387024 179.104004,177.256897 180.065475,173.563889 
	C181.105743,169.568176 184.475067,168.004364 188.110901,168.221268 
	C191.318619,168.412628 194.419495,170.008865 197.640732,170.544968 
	C198.973541,170.766785 200.497116,169.842361 201.933929,169.439224 
	C201.316193,168.064362 201.058594,166.003845 200.008438,165.452271 
	C197.551575,164.161819 194.760544,163.390701 192.022583,162.775162 
	C184.871109,161.167419 177.704117,164.407944 175.139084,170.207108 
	C172.457199,176.270447 174.379181,181.205826 181.930832,186.574356 
M268.401367,204.428284 
	C268.401367,192.656967 268.401367,180.885635 268.401367,168.577835 
	C271.487244,168.577835 274.172028,168.903854 276.715485,168.445541 
	C278.064758,168.202423 279.168732,166.597824 280.383423,165.607819 
	C279.232056,164.731079 278.102356,163.130249 276.925842,163.095139 
	C269.285583,162.866989 261.631592,162.866196 253.992035,163.106415 
	C252.890381,163.141052 251.842041,164.871017 250.769028,165.816437 
	C251.883133,166.734787 252.906403,168.264847 254.129913,168.446548 
	C256.834534,168.848206 259.639893,168.571487 262.810669,168.571487 
	C262.810669,179.159653 262.810516,189.102753 262.810730,199.045853 
	C262.810822,202.536911 262.558105,206.056061 262.940033,209.504883 
	C263.088013,210.841278 264.672913,212.018539 265.603180,213.268326 
	C266.531708,211.978561 267.745514,210.798874 268.298950,209.364410 
	C268.746094,208.205399 268.397278,206.739304 268.401367,204.428284 
M242.779221,209.247269 
	C243.788513,210.575363 244.797806,211.903458 245.807098,213.231567 
	C246.633804,211.868713 248.161057,210.514969 248.178879,209.141617 
	C248.358017,195.343414 248.381927,181.540558 248.164581,167.743500 
	C248.139526,166.152023 246.383636,164.587799 245.430237,163.010956 
	C244.546158,164.635696 242.920197,166.249039 242.895020,167.886993 
	C242.687943,181.351761 242.778351,194.821121 242.779221,209.247269 
z"/>
<path fill="#414142" opacity="1.000000" stroke="none" 
	d="
M145.699585,9.769661 
	C154.098160,8.144219 162.075333,6.602346 170.410095,4.991358 
	C170.410095,53.086643 170.410095,100.812462 170.410095,148.989609 
	C144.677597,144.143066 119.081444,139.322205 93.268692,134.460541 
	C93.268692,96.286392 93.268692,58.353779 93.268692,19.680058 
	C110.453392,16.433130 127.865799,13.143179 145.699585,9.769661 
z"/>
<path fill="#FF6735" opacity="1.000000" stroke="none" 
	d="
M174.105438,72.999985 
	C174.105453,50.208637 174.105453,27.917286 174.105453,5.014006 
	C183.579056,6.769134 192.646378,8.418882 201.701477,10.133292 
	C217.212585,13.070024 232.707901,16.091139 248.231186,18.961454 
	C250.643677,19.407536 252.068695,19.924732 252.060532,22.897142 
	C251.960007,59.522942 251.985657,96.149078 251.960022,132.775116 
	C251.959702,133.238892 251.716034,133.702515 251.492722,134.498566 
	C225.975021,139.300110 200.382614,144.115707 174.105408,149.060165 
	C174.105408,123.619415 174.105408,98.559708 174.105438,72.999985 
M228.014053,100.531036 
	C233.146225,94.937187 238.278397,89.343330 243.673309,83.463104 
	C234.864288,83.463104 226.531815,83.463104 217.787094,83.463104 
	C217.787094,77.120071 217.787094,71.020065 217.787094,63.984287 
	C211.401840,63.984287 205.411652,63.984287 197.999207,63.984287 
	C202.086792,59.604900 204.629349,55.917816 208.040848,53.415363 
	C216.578964,47.152348 219.272659,39.079407 217.999374,28.823116 
	C217.264435,22.903313 217.558945,22.588474 211.006653,23.421982 
	C211.006653,24.694599 210.839096,26.035017 211.033539,27.320683 
	C212.413422,36.444355 209.269836,43.302582 202.183456,49.416740 
	C195.757675,54.960922 190.575851,61.946861 184.845581,68.297150 
	C185.058914,68.790085 185.272247,69.283020 185.485580,69.775955 
	C193.880417,69.775955 202.275253,69.775955 211.184769,69.775955 
	C211.184769,77.073799 211.184769,83.468788 211.184769,90.129425 
	C217.564423,89.812645 223.392624,89.523247 229.844666,89.202866 
	C223.943390,96.166962 218.537094,102.459404 213.256592,108.855713 
	C212.255157,110.068771 211.192108,111.666451 211.120712,113.133545 
	C210.864029,118.407555 211.019958,123.701653 211.019958,128.869293 
	C216.134552,129.699188 218.772919,128.320389 217.865540,123.152481 
	C216.543747,115.624207 219.120407,109.546265 224.636490,104.484962 
	C225.730881,103.480797 226.578720,102.207932 228.014053,100.531036 
z"/>
<path fill="#EB6133" opacity="1.000000" stroke="none" 
	d="
M63.058235,188.016785 
	C67.293587,194.294739 67.259933,200.575226 64.054916,206.726974 
	C61.048656,212.497284 55.601284,213.513977 49.576317,213.456009 
	C36.299355,213.328247 36.298267,213.440689 36.298252,200.322632 
	C36.298241,189.675995 36.408653,179.027634 36.241417,168.383636 
	C36.178528,164.380753 37.400768,162.504623 41.682812,162.920319 
	C44.814018,163.224319 48.052197,163.355774 51.149654,162.913101 
	C62.963615,161.224716 67.890007,174.612411 62.342178,182.814621 
	C60.911011,184.930527 60.851913,186.255295 63.058235,188.016785 
M55.358475,188.610245 
	C50.980362,188.610245 46.602249,188.610245 42.294849,188.610245 
	C42.294849,195.085510 42.294849,201.177414 42.294849,207.770416 
	C46.157822,207.770416 49.779774,207.908752 53.386345,207.732452 
	C57.174072,207.547302 59.437332,205.304138 60.374153,201.698334 
	C61.716522,196.531586 60.600327,192.171005 55.358475,188.610245 
M44.819057,182.685608 
	C47.636284,182.677841 50.463917,182.820648 53.268295,182.626938 
	C57.440998,182.338684 58.786644,179.450943 58.908207,175.774734 
	C59.028648,172.132339 58.065536,168.956863 53.788628,168.627518 
	C50.041473,168.338989 46.254517,168.567307 42.032833,168.567307 
	C42.032833,172.791550 41.925602,176.568771 42.118359,180.330627 
	C42.159622,181.135895 43.288277,181.885468 44.819057,182.685608 
z"/>
<path fill="#EB6437" opacity="1.000000" stroke="none" 
	d="
M105.079376,189.999878 
	C105.079933,182.172211 105.199249,174.841705 105.029411,167.517929 
	C104.948082,164.011154 106.310944,162.748016 109.745773,162.922302 
	C113.732491,163.124588 117.737801,162.929855 121.734108,162.980392 
	C129.269684,163.075668 134.163254,166.712311 135.733109,173.312042 
	C137.791885,181.967239 134.955963,189.067230 128.111191,192.397049 
	C127.520096,192.684616 126.932495,192.979385 126.060059,193.410873 
	C128.495987,197.853531 130.904694,202.171661 133.236130,206.531113 
	C134.353195,208.619843 136.719772,211.135895 133.284958,212.743225 
	C132.327698,213.191162 129.489395,211.038971 128.389725,209.467010 
	C126.113419,206.212997 124.144867,202.669220 122.562927,199.022003 
	C120.390526,194.013474 117.199120,191.645950 110.886864,193.876526 
	C110.886864,198.435852 111.122215,203.541168 110.751068,208.602005 
	C110.631439,210.233276 108.915665,211.747498 107.930061,213.315247 
	C106.980133,211.705521 105.303108,210.136261 105.210892,208.478821 
	C104.878334,202.501877 105.079659,196.495255 105.079376,189.999878 
M127.202782,169.980423 
	C121.934792,169.363434 116.666809,168.746445 111.091736,168.093491 
	C111.091736,175.212906 111.091736,181.118164 111.091736,187.526566 
	C115.734306,187.526566 120.265839,188.070114 124.556458,187.289474 
	C126.598213,186.917999 129.563705,184.114334 129.683899,182.255478 
	C129.933426,178.397232 128.562683,174.434189 127.202782,169.980423 
z"/>
<path fill="#EB6639" opacity="1.000000" stroke="none" 
	d="
M171.904419,173.662796 
	C171.990402,176.743240 172.252151,179.424164 171.980194,182.049789 
	C171.291153,188.702057 166.726151,192.910156 160.062927,193.130875 
	C155.934006,193.267639 151.796844,193.156219 146.932526,193.156219 
	C146.932526,198.564865 146.934708,203.642380 146.931503,208.719910 
	C146.930130,210.882965 147.240768,213.672882 144.009277,213.118927 
	C142.867722,212.923233 141.347351,210.398590 141.325333,208.917557 
	C141.120239,195.118546 141.274170,181.314606 141.155106,167.513580 
	C141.125168,164.042496 142.408173,162.726654 145.859375,162.915466 
	C149.672638,163.124100 153.506271,162.941345 157.330734,162.969193 
	C165.404282,163.027954 169.040207,165.613739 171.904419,173.662796 
M146.922913,184.388428 
	C147.837158,185.400436 148.658478,187.157425 149.683029,187.285248 
	C152.800491,187.674194 155.998199,187.503433 159.161377,187.422623 
	C163.676331,187.307281 166.007477,184.859818 166.587631,179.801254 
	C167.217148,174.312286 164.962402,169.454285 160.886185,168.993988 
	C156.380173,168.485168 151.772385,168.877762 146.919998,168.877762 
	C146.919998,174.111649 146.919998,178.757324 146.922913,184.388428 
z"/>
<path fill="#EB6335" opacity="1.000000" stroke="none" 
	d="
M90.379097,212.633316 
	C77.781723,215.496567 69.904892,209.170151 69.870804,196.563049 
	C69.845169,187.082367 69.844460,177.601456 69.881126,168.120834 
	C69.889885,165.855911 69.468254,162.776764 72.880386,163.152664 
	C73.953461,163.270874 75.431999,166.316803 75.477715,168.055511 
	C75.731148,177.695953 75.557808,187.346756 75.615067,196.993515 
	C75.654999,203.721085 79.496262,208.042389 85.171677,207.934143 
	C90.662216,207.829453 94.248405,203.622452 94.275940,197.106873 
	C94.316704,187.459946 94.129509,177.807846 94.428772,168.170029 
	C94.484299,166.381790 96.378777,164.650650 97.424515,162.893158 
	C98.302017,164.601334 99.895439,166.291641 99.938614,168.020645 
	C100.183479,177.827942 99.946518,187.646210 100.094818,197.457382 
	C100.202507,204.581833 97.193840,209.553894 90.379097,212.633316 
z"/>
<path fill="#464647" opacity="1.000000" stroke="none" 
	d="
M237.743286,194.805481 
	C237.641052,207.681885 230.395874,215.113281 220.109818,213.365173 
	C212.808640,212.124344 207.644028,206.843033 207.441589,199.466934 
	C207.145035,188.661774 207.236237,177.840210 207.482941,167.032944 
	C207.515259,165.617233 209.443771,164.244797 210.494019,162.852325 
	C211.322540,164.270248 212.837952,165.673370 212.868881,167.108490 
	C213.080246,176.919037 212.952240,186.736404 212.989395,196.551361 
	C213.016068,203.592407 216.859619,208.059418 222.682587,207.942490 
	C228.324371,207.829208 231.946350,203.475220 231.968216,196.668533 
	C231.999207,187.019897 231.842850,177.367462 232.105164,167.725861 
	C232.149780,166.085739 233.890793,164.491760 234.848114,162.876465 
	C235.813461,164.544891 237.559143,166.188400 237.613281,167.885880 
	C237.894241,176.693848 237.743530,185.515594 237.743286,194.805481 
z"/>
<path fill="#3F3F40" opacity="1.000000" stroke="none" 
	d="
M291.102600,162.998810 
	C295.746124,162.998703 299.917084,162.807129 304.050995,163.114075 
	C305.307220,163.207367 306.461304,164.676514 307.662201,165.515488 
	C306.446777,166.521942 305.283081,168.312744 304.006866,168.396927 
	C298.926422,168.731949 293.810913,168.534912 288.521149,168.534912 
	C288.521149,173.650742 288.521149,178.082321 288.521149,183.040924 
	C291.962891,183.040924 295.293091,182.739532 298.524445,183.173615 
	C300.041046,183.377335 301.367310,184.998077 302.779816,185.976639 
	C301.306427,186.909012 299.914703,188.430679 298.342346,188.648514 
	C295.264984,189.074860 292.086884,188.773743 288.636902,188.773743 
	C288.636902,195.173782 288.636902,201.181259 288.636902,207.760773 
	C293.871216,207.760773 298.822998,207.568512 303.741943,207.885330 
	C305.105835,207.973145 306.372406,209.572327 307.683624,210.478119 
	C306.401917,211.422348 305.158508,213.113708 303.831879,213.181702 
	C298.027863,213.479263 292.199310,213.265182 286.380493,213.322922 
	C283.848572,213.348053 282.856750,212.280243 282.868896,209.722778 
	C282.936768,195.423981 282.880188,181.124649 282.909912,166.825592 
	C282.923035,160.504700 287.844818,163.872787 291.102600,162.998810 
z"/>
<path fill="#49494A" opacity="1.000000" stroke="none" 
	d="
M181.639755,186.363434 
	C174.379181,181.205826 172.457199,176.270447 175.139084,170.207108 
	C177.704117,164.407944 184.871109,161.167419 192.022583,162.775162 
	C194.760544,163.390701 197.551575,164.161819 200.008438,165.452271 
	C201.058594,166.003845 201.316193,168.064362 201.933929,169.439224 
	C200.497116,169.842361 198.973541,170.766785 197.640732,170.544968 
	C194.419495,170.008865 191.318619,168.412628 188.110901,168.221268 
	C184.475067,168.004364 181.105743,169.568176 180.065475,173.563889 
	C179.104004,177.256897 181.496780,179.387024 184.314560,181.212067 
	C188.778168,184.103149 193.160736,187.119034 197.602020,190.045029 
	C202.184296,193.063919 204.620438,197.289352 203.741928,202.732132 
	C202.855621,208.223312 198.943771,212.163361 193.808975,212.632095 
	C187.890244,213.172379 181.777725,211.836838 175.787735,211.030823 
	C175.055908,210.932343 173.947342,208.945526 174.128632,208.062927 
	C174.311249,207.173981 175.813156,206.130249 176.867844,205.958664 
	C178.068970,205.763260 179.399750,206.577713 180.700836,206.741867 
	C183.968811,207.154205 187.493042,208.336319 190.458984,207.531342 
	C193.265076,206.769760 196.422882,204.352829 197.742966,201.795242 
	C199.493835,198.403091 196.219513,196.154343 193.528397,194.345932 
	C189.665909,191.750412 185.796997,189.164429 181.639755,186.363434 
z"/>
<path fill="#474747" opacity="1.000000" stroke="none" 
	d="
M268.401489,204.918854 
	C268.397278,206.739304 268.746094,208.205399 268.298950,209.364410 
	C267.745514,210.798874 266.531708,211.978561 265.603180,213.268311 
	C264.672913,212.018539 263.088013,210.841278 262.940033,209.504883 
	C262.558105,206.056061 262.810822,202.536911 262.810730,199.045853 
	C262.810516,189.102753 262.810669,179.159653 262.810669,168.571487 
	C259.639893,168.571487 256.834534,168.848206 254.129913,168.446548 
	C252.906403,168.264847 251.883133,166.734787 250.769012,165.816437 
	C251.842041,164.871017 252.890381,163.141052 253.992035,163.106415 
	C261.631592,162.866196 269.285583,162.866989 276.925842,163.095139 
	C278.102356,163.130249 279.232056,164.731079 280.383423,165.607819 
	C279.168732,166.597824 278.064758,168.202423 276.715485,168.445541 
	C274.172028,168.903854 271.487244,168.577835 268.401367,168.577835 
	C268.401367,180.885635 268.401367,192.656967 268.401489,204.918854 
z"/>
<path fill="#424243" opacity="1.000000" stroke="none" 
	d="
M242.778885,208.768173 
	C242.778351,194.821121 242.687943,181.351761 242.895020,167.886993 
	C242.920197,166.249039 244.546158,164.635696 245.430237,163.010956 
	C246.383636,164.587799 248.139526,166.152023 248.164581,167.743500 
	C248.381927,181.540558 248.358017,195.343414 248.178879,209.141617 
	C248.161057,210.514969 246.633804,211.868713 245.807098,213.231567 
	C244.797806,211.903458 243.788513,210.575363 242.778885,208.768173 
z"/>
<path fill="#FFF9F7" opacity="1.000000" stroke="none" 
	d="
M227.777161,100.794998 
	C226.578720,102.207932 225.730881,103.480797 224.636490,104.484962 
	C219.120407,109.546265 216.543747,115.624207 217.865540,123.152481 
	C218.772919,128.320389 216.134552,129.699188 211.019958,128.869293 
	C211.019958,123.701653 210.864029,118.407555 211.120712,113.133545 
	C211.192108,111.666451 212.255157,110.068771 213.256592,108.855713 
	C218.537094,102.459404 223.943390,96.166962 229.844666,89.202866 
	C223.392624,89.523247 217.564423,89.812645 211.184769,90.129425 
	C211.184769,83.468788 211.184769,77.073799 211.184769,69.775955 
	C202.275253,69.775955 193.880417,69.775955 185.485580,69.775955 
	C185.272247,69.283020 185.058914,68.790085 184.845581,68.297150 
	C190.575851,61.946861 195.757675,54.960922 202.183456,49.416740 
	C209.269836,43.302582 212.413422,36.444355 211.033539,27.320683 
	C210.839096,26.035017 211.006653,24.694599 211.006653,23.421982 
	C217.558945,22.588474 217.264435,22.903313 217.999374,28.823116 
	C219.272659,39.079407 216.578964,47.152348 208.040848,53.415363 
	C204.629349,55.917816 202.086792,59.604900 197.999207,63.984287 
	C205.411652,63.984287 211.401840,63.984287 217.787094,63.984287 
	C217.787094,71.020065 217.787094,77.120071 217.787094,83.463104 
	C226.531815,83.463104 234.864288,83.463104 243.673309,83.463104 
	C238.278397,89.343330 233.146225,94.937187 227.777161,100.794998 
z"/>
<path fill="#FEFAF8" opacity="1.000000" stroke="none" 
	d="
M55.728287,188.783295 
	C60.600327,192.171005 61.716522,196.531586 60.374153,201.698334 
	C59.437332,205.304138 57.174072,207.547302 53.386345,207.732452 
	C49.779774,207.908752 46.157822,207.770416 42.294849,207.770416 
	C42.294849,201.177414 42.294849,195.085510 42.294849,188.610245 
	C46.602249,188.610245 50.980362,188.610245 55.728287,188.783295 
z"/>
<path fill="#FEF8F5" opacity="1.000000" stroke="none" 
	d="
M44.367531,182.673157 
	C43.288277,181.885468 42.159622,181.135895 42.118359,180.330627 
	C41.925602,176.568771 42.032833,172.791550 42.032833,168.567307 
	C46.254517,168.567307 50.041473,168.338989 53.788628,168.627518 
	C58.065536,168.956863 59.028648,172.132339 58.908207,175.774734 
	C58.786644,179.450943 57.440998,182.338684 53.268295,182.626938 
	C50.463917,182.820648 47.636284,182.677841 44.367531,182.673157 
z"/>
<path fill="#FEFAF9" opacity="1.000000" stroke="none" 
	d="
M127.530411,170.247330 
	C128.562683,174.434189 129.933426,178.397232 129.683899,182.255478 
	C129.563705,184.114334 126.598213,186.917999 124.556458,187.289474 
	C120.265839,188.070114 115.734306,187.526566 111.091736,187.526566 
	C111.091736,181.118164 111.091736,175.212906 111.091736,168.093491 
	C116.666809,168.746445 121.934792,169.363434 127.530411,170.247330 
z"/>
<path fill="#FEFAF9" opacity="1.000000" stroke="none" 
	d="
M146.921448,183.895721 
	C146.919998,178.757324 146.919998,174.111649 146.919998,168.877762 
	C151.772385,168.877762 156.380173,168.485168 160.886185,168.993988 
	C164.962402,169.454285 167.217148,174.312286 166.587631,179.801254 
	C166.007477,184.859818 163.676331,187.307281 159.161377,187.422623 
	C155.998199,187.503433 152.800491,187.674194 149.683029,187.285248 
	C148.658478,187.157425 147.837158,185.400436 146.921448,183.895721 
z"/>
</svg>