<svg version="1.1" id="Layer_1" xmlns="http://www.w3.org/2000/svg" xmlns:xlink="http://www.w3.org/1999/xlink" x="0px" y="0px"
	 width="100%" viewBox="0 0 160 148" enable-background="new 0 0 160 148" xml:space="preserve">
<path fill="#FEFEFE" opacity="1.000000" stroke="none" 
	d="
M1.000000,79.000000 
	C1.000000,53.036034 1.000000,27.072067 1.000000,1.054051 
	C54.223335,1.054051 107.446747,1.054051 161.000000,1.054051 
	C161.000000,26.686621 161.000000,52.374653 160.655106,78.483177 
	C157.761963,75.876816 155.713150,72.131432 152.576447,69.951180 
	C140.858276,61.806095 129.324799,53.132637 116.721596,46.582314 
	C95.463737,35.533855 72.698112,34.267048 50.656944,43.736237 
	C38.271900,49.057026 26.958178,57.115120 15.722046,64.763084 
	C10.160966,68.548279 5.867170,74.195335 1.000000,79.000000 
z"/>
<path fill="#FEFEFE" opacity="1.000000" stroke="none" 
	d="
M161.000000,84.000000 
	C161.000000,105.633942 161.000000,127.267883 161.000000,148.950912 
	C107.779984,148.950912 54.559910,148.950912 1.000000,148.950912 
	C1.000000,127.646973 1.000000,106.292145 1.336182,84.583237 
	C4.418965,85.792030 7.030411,88.354118 9.935266,88.747040 
	C23.426804,90.571953 35.386871,96.111916 46.915272,102.864449 
	C69.654953,116.183746 92.360947,115.566780 114.970200,102.685997 
	C126.290329,96.236771 137.794800,90.565659 150.952484,88.701424 
	C154.453430,88.205406 157.658875,85.623962 161.000000,84.000000 
z"/>
<path fill="#050505" opacity="1.000000" stroke="none" 
	d="
M161.000000,83.583336 
	C157.658875,85.623962 154.453430,88.205406 150.952484,88.701424 
	C137.794800,90.565659 126.290329,96.236771 114.970200,102.685997 
	C92.360947,115.566780 69.654953,116.183746 46.915272,102.864449 
	C35.386871,96.111916 23.426804,90.571953 9.935266,88.747040 
	C7.030411,88.354118 4.418965,85.792030 1.336182,84.114578 
	C1.000000,82.611107 1.000000,81.222221 1.000000,79.416664 
	C5.867170,74.195335 10.160966,68.548279 15.722046,64.763084 
	C26.958178,57.115120 38.271900,49.057026 50.656944,43.736237 
	C72.698112,34.267048 95.463737,35.533855 116.721596,46.582314 
	C129.324799,53.132637 140.858276,61.806095 152.576447,69.951180 
	C155.713150,72.131432 157.761963,75.876816 160.655106,78.951836 
	C161.000000,80.388893 161.000000,81.777779 161.000000,83.583336 
M15.101346,80.859665 
	C14.162101,81.174126 13.222857,81.488579 12.283611,81.803032 
	C12.312556,82.130028 12.341501,82.457016 12.370447,82.784004 
	C14.737010,83.119102 17.103573,83.454201 19.470137,83.789307 
	C19.555986,83.474380 19.641836,83.159454 19.727686,82.844528 
	C18.549633,82.303360 17.371580,81.762199 16.706755,81.089615 
	C16.907681,80.817543 17.108608,80.545471 17.309534,80.273399 
	C16.812902,80.445625 16.316273,80.617851 15.101346,80.859665 
M137.463287,81.845207 
	C137.937363,80.545525 138.411453,79.245834 139.404587,78.163864 
	C139.929749,77.897346 140.454910,77.630836 140.980072,77.364319 
	C140.389786,77.230782 139.799484,77.097244 138.954681,76.314598 
	C128.710953,67.963287 117.637527,61.022964 104.701546,55.300320 
	C113.953453,72.365273 110.723145,85.911697 96.776054,97.455124 
	C110.714432,92.975952 124.244881,88.279671 137.762283,83.546127 
	C137.865585,83.509956 137.790894,82.965515 138.655624,82.826942 
	C141.054489,83.188911 143.453369,83.550888 145.852234,83.912857 
	C145.888123,83.263565 145.923996,82.614273 145.959885,81.964973 
	C143.242386,82.210609 140.524872,82.456238 137.463287,81.845207 
M53.590843,56.819950 
	C42.967735,63.270130 32.344627,69.720306 22.390114,75.764526 
	C22.748728,78.984741 23.012693,81.355049 23.240309,83.398926 
	C36.977947,88.263870 51.160294,93.286293 65.342636,98.308723 
	C51.094532,85.379234 48.864613,76.995796 55.165268,58.600601 
	C55.346458,58.071606 54.616272,57.230450 53.590843,56.819950 
M76.128662,69.606857 
	C78.548683,67.582794 81.476891,65.761192 79.423340,61.819023 
	C72.814796,63.411995 70.161125,66.529549 70.523407,73.287880 
	C72.552612,72.138382 74.179611,71.216728 76.128662,69.606857 
M91.791588,76.049042 
	C91.360352,75.396545 91.014923,74.260414 90.484619,74.166328 
	C85.154480,73.220650 81.409355,77.805420 82.212250,84.313148 
	C87.048874,83.911560 89.842949,81.044357 91.791588,76.049042 
M75.680527,83.323868 
	C76.999329,83.685623 78.318130,84.047379 79.736984,84.436577 
	C80.026749,78.091522 75.176201,73.537964 68.855499,75.081039 
	C71.101875,77.963631 73.041901,80.453087 75.680527,83.323868 
M85.813515,69.774651 
	C87.552406,70.881447 89.291298,71.988243 91.932655,73.669464 
	C90.997200,65.867058 88.172226,62.917599 82.249680,62.030891 
	C80.565300,65.562561 82.831223,67.417984 85.813515,69.774651 
z"/>
<path fill="#F8F8F8" opacity="1.000000" stroke="none" 
	d="
M53.950943,56.677399 
	C54.616272,57.230450 55.346458,58.071606 55.165268,58.600601 
	C48.864613,76.995796 51.094532,85.379234 65.342636,98.308723 
	C51.160294,93.286293 36.977947,88.263870 23.240309,83.398926 
	C23.012693,81.355049 22.748728,78.984741 22.390114,75.764526 
	C32.344627,69.720306 42.967735,63.270130 53.950943,56.677399 
z"/>
<path fill="#F9F9F9" opacity="1.000000" stroke="none" 
	d="
M138.885529,77.946152 
	C138.411453,79.245834 137.937363,80.545525 137.670029,82.256454 
	C137.876770,82.667694 137.799316,82.658386 137.799316,82.658386 
	C137.790894,82.965515 137.865585,83.509956 137.762283,83.546127 
	C124.244881,88.279671 110.714432,92.975952 96.776054,97.455124 
	C110.723145,85.911697 113.953453,72.365273 104.701546,55.300320 
	C117.637527,61.022964 128.710953,67.963287 139.007904,76.887024 
	C139.002594,77.621689 138.944061,77.783920 138.885529,77.946152 
z"/>
<path fill="#EFEFEF" opacity="1.000000" stroke="none" 
	d="
M75.967636,69.950966 
	C74.179611,71.216728 72.552612,72.138382 70.523407,73.287880 
	C70.161125,66.529549 72.814796,63.411995 79.423340,61.819023 
	C81.476891,65.761192 78.548683,67.582794 75.967636,69.950966 
z"/>
<path fill="#E9E9E9" opacity="1.000000" stroke="none" 
	d="
M91.665176,76.418297 
	C89.842949,81.044357 87.048874,83.911560 82.212250,84.313148 
	C81.409355,77.805420 85.154480,73.220650 90.484619,74.166328 
	C91.014923,74.260414 91.360352,75.396545 91.665176,76.418297 
z"/>
<path fill="#EBEBEB" opacity="1.000000" stroke="none" 
	d="
M75.331223,83.133209 
	C73.041901,80.453087 71.101875,77.963631 68.855499,75.081039 
	C75.176201,73.537964 80.026749,78.091522 79.736984,84.436577 
	C78.318130,84.047379 76.999329,83.685623 75.331223,83.133209 
z"/>
<path fill="#F4F4F4" opacity="1.000000" stroke="none" 
	d="
M85.551147,69.483376 
	C82.831223,67.417984 80.565300,65.562561 82.249832,62.030827 
	C88.172226,62.917599 90.997200,65.867058 91.932655,73.669464 
	C89.291298,71.988243 87.552406,70.881447 85.551147,69.483376 
z"/>
<path fill="#1D1D1D" opacity="1.000000" stroke="none" 
	d="
M16.193529,81.221031 
	C17.371580,81.762199 18.549633,82.303360 19.727686,82.844528 
	C19.641836,83.159454 19.555986,83.474380 19.470137,83.789307 
	C17.103573,83.454201 14.737010,83.119102 12.370447,82.784004 
	C12.341501,82.457016 12.312556,82.130028 12.283611,81.803032 
	C13.222857,81.488579 14.162101,81.174126 15.554291,80.932327 
	C16.007236,81.004990 16.193529,81.221031 16.193529,81.221031 
z"/>
<path fill="#868686" opacity="1.000000" stroke="none" 
	d="
M138.227478,82.742661 
	C137.799316,82.658386 137.876770,82.667694 137.842072,82.684784 
	C140.524872,82.456238 143.242386,82.210609 145.959885,81.964973 
	C145.923996,82.614273 145.888123,83.263565 145.852234,83.912857 
	C143.453369,83.550888 141.054489,83.188911 138.227478,82.742661 
z"/>
<path fill="#161616" opacity="1.000000" stroke="none" 
	d="
M139.145050,78.055008 
	C138.944061,77.783920 139.002594,77.621689 139.135162,77.211586 
	C139.799484,77.097244 140.389786,77.230782 140.980072,77.364319 
	C140.454910,77.630836 139.929749,77.897346 139.145050,78.055008 
z"/>
<path fill="#1D1D1D" opacity="1.000000" stroke="none" 
	d="
M15.913440,80.897537 
	C16.316273,80.617851 16.812902,80.445625 17.309534,80.273399 
	C17.108608,80.545471 16.907681,80.817543 16.450142,81.155319 
	C16.193529,81.221031 16.007236,81.004990 15.913440,80.897537 
z"/>
</svg>